<?xml version="1.0" encoding="UTF-8"?>
<svg id="Capa_1" data-name="Capa 1" xmlns="http://www.w3.org/2000/svg" viewBox="0 0 416.74 139.18">
  <defs>
    <style>
      .cls-1 {
        fill: #aecc02;
      }

      .cls-1, .cls-2, .cls-3, .cls-4 {
        stroke-width: 0px;
      }

      .cls-2 {
        fill: #263c49;
      }

      .cls-3 {
        fill: #008a11;
      }

      .cls-4 {
        fill: #ffd81a;
      }
    </style>
  </defs>
  <g>
    <path class="cls-2" d="m56.76,56.24c10.88,1.32,19.34,10.59,19.34,21.82,0,.9-.07,1.77-.17,2.64,2.89,2.58,5.59,5.35,8.11,8.29,1.25-3.42,1.97-7.09,1.97-10.94,0-17.36-13.94-31.5-31.21-31.88l1.96,10.05Z"/>
    <path class="cls-4" d="m29.06,95.27c5.66,8.28,15.18,13.72,25.97,13.72.6,0,1.2-.02,1.79-.05-7.17-7.49-16.89-12.52-27.76-13.67Z"/>
    <path class="cls-1" d="m24.3,81.66c-.15,0-.29.01-.44.01.36,2.73,1.06,5.36,2.08,7.82,15.03.48,28.43,7.53,37.39,18.39,2.64-.72,5.14-1.78,7.45-3.12-10.68-14.02-27.54-23.1-46.48-23.1Z"/>
    <path class="cls-3" d="m25.09,67.95c-.79,2.48-1.29,5.09-1.44,7.79.22,0,.44-.02.66-.02,20.93,0,39.56,10.06,51.31,25.58,2-1.73,3.77-3.71,5.28-5.89-13.07-16.53-33.2-27.23-55.81-27.47Z"/>
    <path class="cls-2" d="m36.44,64.7c-1.54,0-3.15-2.44-4.33-3.44-3.23-2.71-6.69-4.24-10.57-4.66v-.03c.41-3.68,4.23-6.01,7.64-4.59,2.48,1.03,4.82,2.48,7.06,4.36l.16.02c2.06-1.78,4.26-3.19,6.6-4.22,3.38-1.5,7.24.79,7.71,4.45h0c-3.75.48-7.06,2-10.12,4.63-1.18,1.02-2.59,3.47-4.16,3.47Z"/>
  </g>
  <g>
    <path class="cls-2" d="m106.37,70.07c0,2.54,2.16,4.35,6.47,5.44,1.25.28,2.17.49,2.75.63.58.14,1.45.38,2.6.72,1.15.34,2.01.72,2.6,1.12.58.4,1.23.91,1.93,1.51.7.6,1.21,1.32,1.51,2.15.3.83.45,1.76.45,2.81,0,2.54-1,4.6-2.99,6.2-1.99,1.59-4.6,2.39-7.83,2.39-2.86,0-5.3-.6-7.31-1.81-2.02-1.21-3.41-2.84-4.17-4.9l2.6-1.51c.56,1.69,1.62,3,3.17,3.93,1.55.93,3.45,1.39,5.71,1.39s4.22-.5,5.65-1.51c1.43-1.01,2.15-2.4,2.15-4.17,0-2.74-2.16-4.57-6.47-5.5-4.03-.97-6.73-1.85-8.1-2.66-2.5-1.45-3.75-3.53-3.75-6.23,0-2.42.95-4.45,2.84-6.11,1.97-1.65,4.45-2.48,7.43-2.48,2.38,0,4.47.54,6.29,1.63,1.81,1.09,3.14,2.56,3.99,4.41l-2.54,1.45c-.6-1.45-1.6-2.58-2.99-3.38-1.39-.81-2.97-1.21-4.74-1.21-2.1,0-3.83.52-5.2,1.57-1.37,1.05-2.05,2.42-2.05,4.11Z"/>
    <path class="cls-2" d="m153.45,78.11v-15.96h3.02v30.22h-3.02v-5.74c-2.18,4.27-5.78,6.41-10.82,6.41-3.59,0-6.44-1.1-8.55-3.29-2.12-2.2-3.17-5.13-3.17-8.79v-18.8h3.08v18.8c0,2.82.79,5.06,2.36,6.71,1.57,1.65,3.75,2.48,6.53,2.48,3.18,0,5.74-1.05,7.68-3.14,1.93-2.1,2.9-5.06,2.9-8.89Z"/>
    <path class="cls-2" d="m179.32,93.16c-4.55,0-8.34-1.51-11.36-4.53-3.02-3.06-4.53-6.85-4.53-11.36s1.51-8.28,4.53-11.3c3.02-3.06,6.81-4.59,11.36-4.59,2.98,0,5.66.72,8.04,2.15,2.38,1.43,4.15,3.35,5.32,5.77l-4.41,2.54c-.77-1.61-1.94-2.9-3.54-3.87-1.59-.97-3.4-1.45-5.41-1.45-3.02,0-5.56,1.03-7.62,3.08-2.02,2.1-3.02,4.65-3.02,7.68s1.01,5.52,3.02,7.62c2.06,2.06,4.59,3.08,7.62,3.08,2.01,0,3.83-.47,5.44-1.42,1.61-.95,2.84-2.23,3.69-3.84l4.47,2.6c-1.33,2.42-3.2,4.33-5.62,5.74-2.42,1.41-5.08,2.12-7.98,2.12Z"/>
    <path class="cls-2" d="m222.72,67.35v-5.2h5.26v30.22h-5.26v-5.2c-2.58,3.99-6.39,5.98-11.42,5.98-4.27,0-7.88-1.53-10.82-4.59-2.98-3.1-4.47-6.87-4.47-11.3s1.49-8.14,4.47-11.24c2.98-3.1,6.59-4.65,10.82-4.65,5.04,0,8.84,1.99,11.42,5.98Zm-10.76,20.73c3.06,0,5.62-1.03,7.68-3.08,2.06-2.13,3.08-4.71,3.08-7.74s-1.03-5.62-3.08-7.68c-2.06-2.09-4.61-3.14-7.68-3.14s-5.56,1.05-7.62,3.14c-2.06,2.06-3.08,4.61-3.08,7.68s1.03,5.6,3.08,7.74c2.05,2.06,4.59,3.08,7.62,3.08Z"/>
    <path class="cls-2" d="m268.6,61.36c3.42,0,6.17,1.11,8.25,3.32,2.08,2.22,3.11,5.18,3.11,8.88v18.8h-5.26v-18.62c0-2.3-.6-4.1-1.78-5.41-1.19-1.31-2.81-1.96-4.87-1.96-2.34,0-4.16.78-5.47,2.33-1.31,1.55-1.96,3.84-1.96,6.86v16.8h-5.26v-18.62c0-2.3-.57-4.1-1.72-5.41-1.15-1.31-2.71-1.96-4.68-1.96-2.3,0-4.16.8-5.59,2.39-1.43,1.59-2.15,3.86-2.15,6.8v16.8h-5.26v-30.22h5.26v4.05c2.06-3.22,5.06-4.84,9.01-4.84s7.03,1.71,8.88,5.14c2.1-3.42,5.26-5.14,9.49-5.14Z"/>
    <path class="cls-2" d="m303.96,61.36c4.23,0,7.84,1.55,10.82,4.65,2.98,3.1,4.47,6.85,4.47,11.24s-1.49,8.2-4.47,11.3c-2.94,3.06-6.55,4.59-10.82,4.59-5,0-8.8-1.99-11.42-5.98v17.29h-5.26v-42.31h5.26v5.2c2.62-3.99,6.43-5.98,11.42-5.98Zm-.66,26.72c3.02,0,5.56-1.03,7.62-3.08,2.06-2.13,3.08-4.71,3.08-7.74s-1.03-5.62-3.08-7.68c-2.06-2.09-4.59-3.14-7.62-3.14s-5.62,1.05-7.68,3.14c-2.06,2.06-3.08,4.61-3.08,7.68s1.03,5.6,3.08,7.74c2.06,2.06,4.61,3.08,7.68,3.08Z"/>
    <path class="cls-2" d="m351.04,88.56c-3.06,3.06-6.83,4.59-11.3,4.59s-8.24-1.53-11.3-4.59c-3.06-3.06-4.59-6.83-4.59-11.3s1.53-8.24,4.59-11.3c3.06-3.06,6.83-4.59,11.3-4.59s8.24,1.53,11.3,4.59c3.1,3.1,4.65,6.87,4.65,11.3s-1.55,8.2-4.65,11.3Zm-11.3-.54c3.02,0,5.56-1.03,7.62-3.08,2.05-2.06,3.08-4.61,3.08-7.68s-1.03-5.62-3.08-7.68c-2.06-2.06-4.59-3.08-7.62-3.08s-5.5,1.03-7.56,3.08c-2.06,2.06-3.08,4.61-3.08,7.68s1.03,5.62,3.08,7.68c2.05,2.06,4.57,3.08,7.56,3.08Z"/>
  </g>
</svg>